<?xml version="1.0" encoding="utf-8" standalone="no"?>
<!DOCTYPE svg PUBLIC "-//W3C//DTD SVG 1.1//EN"
  "http://www.w3.org/Graphics/SVG/1.1/DTD/svg11.dtd">
<svg xmlns:xlink="http://www.w3.org/1999/xlink" width="425.52pt" height="280.558125pt" viewBox="0 0 425.52 280.558125" xmlns="http://www.w3.org/2000/svg" version="1.1">
 <metadata>
  <rdf:RDF xmlns:dc="http://purl.org/dc/elements/1.1/" xmlns:cc="http://creativecommons.org/ns#" xmlns:rdf="http://www.w3.org/1999/02/22-rdf-syntax-ns#">
   <cc:Work>
    <dc:type rdf:resource="http://purl.org/dc/dcmitype/StillImage"/>
    <dc:date>2026-07-20T12:54:06.098311</dc:date>
    <dc:format>image/svg+xml</dc:format>
    <dc:creator>
     <cc:Agent>
      <dc:title>Matplotlib v3.11.1, https://matplotlib.org/</dc:title>
     </cc:Agent>
    </dc:creator>
   </cc:Work>
  </rdf:RDF>
 </metadata>
 <defs>
  <style type="text/css">*{stroke-linejoin: round; stroke-linecap: butt}</style>
 </defs>
 <g id="figure_1">
  <g id="patch_1">
   <path d="M 0 280.558125 
L 425.52 280.558125 
L 425.52 0 
L 0 0 
L 0 280.558125 
z
" style="fill: none; opacity: 0"/>
  </g>
  <g id="axes_1">
   <g id="patch_2">
    <path d="M 49.2 236.358125 
L 418.32 236.358125 
L 418.32 22.318125 
L 49.2 22.318125 
L 49.2 236.358125 
z
" style="fill: none"/>
   </g>
   <g id="matplotlib.axis_1">
    <g id="xtick_1">
     <g id="line2d_1">
      <path d="M 65.978182 236.358125 
L 65.978182 22.318125 
" clip-path="url(#pa6f9bc20bf)" style="fill: none; stroke-dasharray: 2.96,1.28; stroke-dashoffset: 0; stroke: #808080; stroke-opacity: 0.3; stroke-width: 0.8"/>
     </g>
     <g id="line2d_2">
      <defs>
       <path id="m0c3418d648" d="M 0 0 
L 0 3.5 
" style="stroke: #f2f4f6; stroke-width: 0.8"/>
      </defs>
      <g>
       <use xlink:href="#m0c3418d648" x="65.978182" y="236.358125" style="fill: #f2f4f6; stroke: #f2f4f6; stroke-width: 0.8"/>
      </g>
     </g>
     <g id="text_1">
      <!-- 0 -->
      <g style="fill: #f2f4f6" transform="translate(62.978182 253.608125) scale(0.1 -0.1)">
       <defs>
        <path id="IBMPlexMono-Regular-38" d="M 1920 -77 
Q 1510 -77 1216 80 
Q 922 237 730 531 
Q 538 826 448 1254 
Q 358 1683 358 2234 
Q 358 2778 448 3210 
Q 538 3642 730 3936 
Q 922 4230 1216 4387 
Q 1510 4544 1920 4544 
Q 2330 4544 2624 4387 
Q 2918 4230 3110 3936 
Q 3302 3642 3392 3210 
Q 3482 2778 3482 2234 
Q 3482 1683 3392 1254 
Q 3302 826 3110 531 
Q 2918 237 2624 80 
Q 2330 -77 1920 -77 
z
M 1920 390 
Q 2189 390 2381 496 
Q 2573 602 2691 794 
Q 2810 986 2867 1258 
Q 2925 1530 2925 1869 
L 2925 2598 
Q 2925 2931 2867 3206 
Q 2810 3482 2691 3674 
Q 2573 3866 2381 3971 
Q 2189 4077 1920 4077 
Q 1651 4077 1459 3971 
Q 1267 3866 1148 3674 
Q 1030 3482 972 3206 
Q 915 2931 915 2598 
L 915 1869 
Q 915 1530 972 1258 
Q 1030 986 1148 794 
Q 1267 602 1459 496 
Q 1651 390 1920 390 
z
M 1920 1856 
Q 1696 1856 1609 1945 
Q 1523 2035 1523 2163 
L 1523 2304 
Q 1523 2432 1609 2521 
Q 1696 2611 1920 2611 
Q 2144 2611 2230 2521 
Q 2317 2432 2317 2304 
L 2317 2163 
Q 2317 2035 2230 1945 
Q 2144 1856 1920 1856 
z
" transform="scale(0.015625)"/>
       </defs>
       <use xlink:href="#IBMPlexMono-Regular-38"/>
      </g>
     </g>
    </g>
    <g id="xtick_2">
     <g id="line2d_3">
      <path d="M 107.923636 236.358125 
L 107.923636 22.318125 
" clip-path="url(#pa6f9bc20bf)" style="fill: none; stroke-dasharray: 2.96,1.28; stroke-dashoffset: 0; stroke: #808080; stroke-opacity: 0.3; stroke-width: 0.8"/>
     </g>
     <g id="line2d_4">
      <g>
       <use xlink:href="#m0c3418d648" x="107.923636" y="236.358125" style="fill: #f2f4f6; stroke: #f2f4f6; stroke-width: 0.8"/>
      </g>
     </g>
     <g id="text_2">
      <!-- 5 -->
      <g style="fill: #f2f4f6" transform="translate(104.923636 253.608125) scale(0.1 -0.1)">
       <defs>
        <path id="IBMPlexMono-Regular-3f" d="M 3206 4000 
L 1210 4000 
L 1082 2291 
L 1126 2291 
Q 1293 2515 1497 2646 
Q 1702 2778 2061 2778 
Q 2355 2778 2601 2685 
Q 2848 2592 3027 2413 
Q 3206 2234 3308 1981 
Q 3411 1728 3411 1402 
Q 3411 1075 3308 803 
Q 3206 531 3008 336 
Q 2810 141 2528 32 
Q 2246 -77 1888 -77 
Q 1606 -77 1385 -13 
Q 1165 51 995 160 
Q 826 269 698 403 
Q 570 538 467 685 
L 870 992 
Q 960 858 1053 749 
Q 1146 640 1267 560 
Q 1389 480 1542 435 
Q 1696 390 1901 390 
Q 2362 390 2608 640 
Q 2854 890 2854 1331 
L 2854 1382 
Q 2854 1824 2604 2073 
Q 2355 2323 1888 2323 
Q 1568 2323 1392 2214 
Q 1216 2106 1069 1946 
L 614 2010 
L 774 4467 
L 3206 4467 
L 3206 4000 
z
" transform="scale(0.015625)"/>
       </defs>
       <use xlink:href="#IBMPlexMono-Regular-3f"/>
      </g>
     </g>
    </g>
    <g id="xtick_3">
     <g id="line2d_5">
      <path d="M 149.869091 236.358125 
L 149.869091 22.318125 
" clip-path="url(#pa6f9bc20bf)" style="fill: none; stroke-dasharray: 2.96,1.28; stroke-dashoffset: 0; stroke: #808080; stroke-opacity: 0.3; stroke-width: 0.8"/>
     </g>
     <g id="line2d_6">
      <g>
       <use xlink:href="#m0c3418d648" x="149.869091" y="236.358125" style="fill: #f2f4f6; stroke: #f2f4f6; stroke-width: 0.8"/>
      </g>
     </g>
     <g id="text_3">
      <!-- 10 -->
      <g style="fill: #f2f4f6" transform="translate(143.869091 253.608125) scale(0.1 -0.1)">
       <defs>
        <path id="IBMPlexMono-Regular-3b" d="M 544 0 
L 544 467 
L 1824 467 
L 1824 4070 
L 1779 4070 
L 653 3021 
L 339 3360 
L 1523 4467 
L 2362 4467 
L 2362 467 
L 3539 467 
L 3539 0 
L 544 0 
z
" transform="scale(0.015625)"/>
       </defs>
       <use xlink:href="#IBMPlexMono-Regular-3b"/>
       <use xlink:href="#IBMPlexMono-Regular-38" transform="translate(60 0)"/>
      </g>
     </g>
    </g>
    <g id="xtick_4">
     <g id="line2d_7">
      <path d="M 191.814545 236.358125 
L 191.814545 22.318125 
" clip-path="url(#pa6f9bc20bf)" style="fill: none; stroke-dasharray: 2.96,1.28; stroke-dashoffset: 0; stroke: #808080; stroke-opacity: 0.3; stroke-width: 0.8"/>
     </g>
     <g id="line2d_8">
      <g>
       <use xlink:href="#m0c3418d648" x="191.814545" y="236.358125" style="fill: #f2f4f6; stroke: #f2f4f6; stroke-width: 0.8"/>
      </g>
     </g>
     <g id="text_4">
      <!-- 15 -->
      <g style="fill: #f2f4f6" transform="translate(185.814545 253.608125) scale(0.1 -0.1)">
       <use xlink:href="#IBMPlexMono-Regular-3b"/>
       <use xlink:href="#IBMPlexMono-Regular-3f" transform="translate(60 0)"/>
      </g>
     </g>
    </g>
    <g id="xtick_5">
     <g id="line2d_9">
      <path d="M 233.76 236.358125 
L 233.76 22.318125 
" clip-path="url(#pa6f9bc20bf)" style="fill: none; stroke-dasharray: 2.96,1.28; stroke-dashoffset: 0; stroke: #808080; stroke-opacity: 0.3; stroke-width: 0.8"/>
     </g>
     <g id="line2d_10">
      <g>
       <use xlink:href="#m0c3418d648" x="233.76" y="236.358125" style="fill: #f2f4f6; stroke: #f2f4f6; stroke-width: 0.8"/>
      </g>
     </g>
     <g id="text_5">
      <!-- 20 -->
      <g style="fill: #f2f4f6" transform="translate(227.76 253.608125) scale(0.1 -0.1)">
       <defs>
        <path id="IBMPlexMono-Regular-3c" d="M 3437 0 
L 454 0 
L 454 550 
L 1946 1894 
Q 2272 2189 2483 2499 
Q 2694 2810 2694 3155 
L 2694 3232 
Q 2694 3635 2483 3856 
Q 2272 4077 1856 4077 
Q 1446 4077 1225 3869 
Q 1005 3661 896 3315 
L 416 3494 
Q 480 3693 592 3881 
Q 704 4070 877 4217 
Q 1050 4365 1296 4454 
Q 1542 4544 1869 4544 
Q 2202 4544 2461 4448 
Q 2720 4352 2896 4179 
Q 3072 4006 3165 3769 
Q 3258 3533 3258 3251 
Q 3258 2995 3184 2771 
Q 3110 2547 2979 2342 
Q 2848 2138 2665 1942 
Q 2483 1747 2259 1555 
L 1011 467 
L 3437 467 
L 3437 0 
z
" transform="scale(0.015625)"/>
       </defs>
       <use xlink:href="#IBMPlexMono-Regular-3c"/>
       <use xlink:href="#IBMPlexMono-Regular-38" transform="translate(60 0)"/>
      </g>
     </g>
    </g>
    <g id="xtick_6">
     <g id="line2d_11">
      <path d="M 275.705455 236.358125 
L 275.705455 22.318125 
" clip-path="url(#pa6f9bc20bf)" style="fill: none; stroke-dasharray: 2.96,1.28; stroke-dashoffset: 0; stroke: #808080; stroke-opacity: 0.3; stroke-width: 0.8"/>
     </g>
     <g id="line2d_12">
      <g>
       <use xlink:href="#m0c3418d648" x="275.705455" y="236.358125" style="fill: #f2f4f6; stroke: #f2f4f6; stroke-width: 0.8"/>
      </g>
     </g>
     <g id="text_6">
      <!-- 25 -->
      <g style="fill: #f2f4f6" transform="translate(269.705455 253.608125) scale(0.1 -0.1)">
       <use xlink:href="#IBMPlexMono-Regular-3c"/>
       <use xlink:href="#IBMPlexMono-Regular-3f" transform="translate(60 0)"/>
      </g>
     </g>
    </g>
    <g id="xtick_7">
     <g id="line2d_13">
      <path d="M 317.650909 236.358125 
L 317.650909 22.318125 
" clip-path="url(#pa6f9bc20bf)" style="fill: none; stroke-dasharray: 2.96,1.28; stroke-dashoffset: 0; stroke: #808080; stroke-opacity: 0.3; stroke-width: 0.8"/>
     </g>
     <g id="line2d_14">
      <g>
       <use xlink:href="#m0c3418d648" x="317.650909" y="236.358125" style="fill: #f2f4f6; stroke: #f2f4f6; stroke-width: 0.8"/>
      </g>
     </g>
     <g id="text_7">
      <!-- 30 -->
      <g style="fill: #f2f4f6" transform="translate(311.650909 253.608125) scale(0.1 -0.1)">
       <defs>
        <path id="IBMPlexMono-Regular-3d" d="M 1728 2573 
Q 2195 2573 2428 2781 
Q 2662 2989 2662 3315 
L 2662 3360 
Q 2662 3718 2435 3897 
Q 2208 4077 1843 4077 
Q 1485 4077 1264 3920 
Q 1043 3763 902 3507 
L 499 3814 
Q 582 3949 704 4080 
Q 826 4211 989 4313 
Q 1152 4416 1366 4480 
Q 1581 4544 1856 4544 
Q 2144 4544 2393 4470 
Q 2643 4397 2828 4253 
Q 3014 4109 3120 3897 
Q 3226 3686 3226 3418 
Q 3226 3200 3158 3027 
Q 3091 2854 2972 2726 
Q 2854 2598 2694 2508 
Q 2534 2419 2355 2374 
L 2355 2349 
Q 2541 2310 2713 2224 
Q 2886 2138 3020 2000 
Q 3155 1862 3235 1667 
Q 3315 1472 3315 1222 
Q 3315 934 3203 694 
Q 3091 454 2889 284 
Q 2688 115 2403 19 
Q 2118 -77 1773 -77 
Q 1478 -77 1251 -13 
Q 1024 51 848 160 
Q 672 269 541 403 
Q 410 538 307 685 
L 710 992 
Q 800 858 896 749 
Q 992 640 1117 560 
Q 1242 480 1402 435 
Q 1562 390 1773 390 
Q 2246 390 2499 608 
Q 2752 826 2752 1229 
L 2752 1280 
Q 2752 1677 2505 1894 
Q 2259 2112 1766 2112 
L 1235 2112 
L 1235 2573 
L 1728 2573 
z
" transform="scale(0.015625)"/>
       </defs>
       <use xlink:href="#IBMPlexMono-Regular-3d"/>
       <use xlink:href="#IBMPlexMono-Regular-38" transform="translate(60 0)"/>
      </g>
     </g>
    </g>
    <g id="xtick_8">
     <g id="line2d_15">
      <path d="M 359.596364 236.358125 
L 359.596364 22.318125 
" clip-path="url(#pa6f9bc20bf)" style="fill: none; stroke-dasharray: 2.96,1.28; stroke-dashoffset: 0; stroke: #808080; stroke-opacity: 0.3; stroke-width: 0.8"/>
     </g>
     <g id="line2d_16">
      <g>
       <use xlink:href="#m0c3418d648" x="359.596364" y="236.358125" style="fill: #f2f4f6; stroke: #f2f4f6; stroke-width: 0.8"/>
      </g>
     </g>
     <g id="text_8">
      <!-- 35 -->
      <g style="fill: #f2f4f6" transform="translate(353.596364 253.608125) scale(0.1 -0.1)">
       <use xlink:href="#IBMPlexMono-Regular-3d"/>
       <use xlink:href="#IBMPlexMono-Regular-3f" transform="translate(60 0)"/>
      </g>
     </g>
    </g>
    <g id="xtick_9">
     <g id="line2d_17">
      <path d="M 401.541818 236.358125 
L 401.541818 22.318125 
" clip-path="url(#pa6f9bc20bf)" style="fill: none; stroke-dasharray: 2.96,1.28; stroke-dashoffset: 0; stroke: #808080; stroke-opacity: 0.3; stroke-width: 0.8"/>
     </g>
     <g id="line2d_18">
      <g>
       <use xlink:href="#m0c3418d648" x="401.541818" y="236.358125" style="fill: #f2f4f6; stroke: #f2f4f6; stroke-width: 0.8"/>
      </g>
     </g>
     <g id="text_9">
      <!-- 40 -->
      <g style="fill: #f2f4f6" transform="translate(395.541818 253.608125) scale(0.1 -0.1)">
       <defs>
        <path id="IBMPlexMono-Regular-3e" d="M 2419 0 
L 2419 877 
L 218 877 
L 218 1350 
L 2150 4467 
L 2931 4467 
L 2931 1318 
L 3597 1318 
L 3597 877 
L 2931 877 
L 2931 0 
L 2419 0 
z
M 698 1318 
L 2419 1318 
L 2419 4051 
L 2394 4051 
L 698 1318 
z
" transform="scale(0.015625)"/>
       </defs>
       <use xlink:href="#IBMPlexMono-Regular-3e"/>
       <use xlink:href="#IBMPlexMono-Regular-38" transform="translate(60 0)"/>
      </g>
     </g>
    </g>
    <g id="text_10">
     <!-- Time (ns) -->
     <g style="fill: #f2f4f6" transform="translate(206.76 270.608125) scale(0.1 -0.1)">
      <defs>
       <path id="IBMPlexMono-Regular-31" d="M 2189 4000 
L 2189 0 
L 1651 0 
L 1651 4000 
L 160 4000 
L 160 4467 
L 3680 4467 
L 3680 4000 
L 2189 4000 
z
" transform="scale(0.015625)"/>
       <path id="IBMPlexMono-Regular-c" d="M 2125 4032 
Q 1901 4032 1811 4125 
Q 1722 4218 1722 4358 
L 1722 4461 
Q 1722 4602 1811 4694 
Q 1901 4787 2125 4787 
Q 2349 4787 2438 4694 
Q 2528 4602 2528 4461 
L 2528 4358 
Q 2528 4218 2438 4125 
Q 2349 4032 2125 4032 
z
M 678 435 
L 1869 435 
L 1869 2867 
L 678 2867 
L 678 3302 
L 2381 3302 
L 2381 435 
L 3494 435 
L 3494 0 
L 678 0 
L 678 435 
z
" transform="scale(0.015625)"/>
       <path id="IBMPlexMono-Regular-10" d="M 346 0 
L 346 3302 
L 819 3302 
L 819 2918 
L 845 2918 
Q 922 3110 1062 3244 
Q 1203 3379 1478 3379 
Q 1766 3379 1907 3235 
Q 2048 3091 2080 2861 
L 2099 2861 
Q 2189 3085 2355 3232 
Q 2522 3379 2816 3379 
Q 3219 3379 3356 3097 
Q 3494 2816 3494 2291 
L 3494 0 
L 3021 0 
L 3021 2208 
Q 3021 2630 2934 2793 
Q 2848 2957 2618 2957 
Q 2413 2957 2285 2825 
Q 2157 2694 2157 2426 
L 2157 0 
L 1683 0 
L 1683 2208 
Q 1683 2630 1596 2793 
Q 1510 2957 1286 2957 
Q 1082 2957 950 2825 
Q 819 2694 819 2426 
L 819 0 
L 346 0 
z
" transform="scale(0.015625)"/>
       <path id="IBMPlexMono-Regular-6" d="M 1978 -77 
Q 1619 -77 1334 44 
Q 1050 166 848 393 
Q 646 621 537 937 
Q 429 1254 429 1645 
Q 429 2042 541 2362 
Q 653 2682 851 2909 
Q 1050 3136 1328 3257 
Q 1606 3379 1946 3379 
Q 2278 3379 2550 3257 
Q 2822 3136 3014 2921 
Q 3206 2707 3308 2412 
Q 3411 2118 3411 1766 
L 3411 1523 
L 966 1523 
L 966 1370 
Q 966 1152 1036 966 
Q 1107 781 1238 646 
Q 1370 512 1558 438 
Q 1747 365 1978 365 
Q 2310 365 2553 518 
Q 2797 672 2925 941 
L 3302 685 
Q 3155 352 2812 137 
Q 2470 -77 1978 -77 
z
M 1946 2957 
Q 1734 2957 1555 2880 
Q 1376 2803 1245 2668 
Q 1114 2534 1040 2352 
Q 966 2170 966 1952 
L 966 1907 
L 2861 1907 
L 2861 1978 
Q 2861 2195 2793 2374 
Q 2726 2554 2608 2685 
Q 2490 2816 2320 2886 
Q 2150 2957 1946 2957 
z
" transform="scale(0.015625)"/>
       <path id="IBMPlexMono-Regular-405" transform="scale(0.015625)"/>
       <path id="IBMPlexMono-Regular-60" d="M 1312 1990 
Q 1312 2458 1417 2890 
Q 1523 3322 1705 3693 
Q 1888 4064 2131 4361 
Q 2374 4659 2643 4864 
L 3162 4864 
Q 2880 4653 2633 4374 
Q 2387 4096 2198 3766 
Q 2010 3437 1901 3056 
Q 1792 2675 1792 2266 
L 1792 1715 
Q 1792 1306 1901 925 
Q 2010 544 2198 214 
Q 2387 -115 2633 -393 
Q 2880 -672 3162 -883 
L 2643 -883 
Q 2374 -685 2131 -384 
Q 1888 -83 1705 288 
Q 1523 659 1417 1091 
Q 1312 1523 1312 1990 
z
" transform="scale(0.015625)"/>
       <path id="IBMPlexMono-Regular-11" d="M 627 0 
L 627 3302 
L 1139 3302 
L 1139 2765 
L 1165 2765 
Q 1216 2886 1293 2998 
Q 1370 3110 1482 3193 
Q 1594 3277 1747 3328 
Q 1901 3379 2106 3379 
Q 2624 3379 2937 3049 
Q 3251 2720 3251 2118 
L 3251 0 
L 2739 0 
L 2739 2029 
Q 2739 2483 2540 2704 
Q 2342 2925 1958 2925 
Q 1805 2925 1657 2886 
Q 1510 2848 1395 2771 
Q 1280 2694 1209 2572 
Q 1139 2451 1139 2291 
L 1139 0 
L 627 0 
z
" transform="scale(0.015625)"/>
       <path id="IBMPlexMono-Regular-16" d="M 1958 -77 
Q 1440 -77 1065 99 
Q 691 275 429 570 
L 774 870 
Q 1011 621 1292 486 
Q 1574 352 1971 352 
Q 2355 352 2601 489 
Q 2848 627 2848 922 
Q 2848 1050 2800 1136 
Q 2752 1222 2669 1273 
Q 2586 1325 2483 1353 
Q 2381 1382 2266 1402 
L 1747 1478 
Q 1574 1504 1372 1549 
Q 1171 1594 1004 1693 
Q 838 1792 726 1958 
Q 614 2125 614 2394 
Q 614 2643 713 2825 
Q 813 3008 992 3133 
Q 1171 3258 1414 3318 
Q 1658 3379 1946 3379 
Q 2394 3379 2723 3238 
Q 3053 3098 3290 2848 
L 2957 2534 
Q 2899 2605 2812 2678 
Q 2726 2752 2601 2813 
Q 2477 2874 2310 2912 
Q 2144 2950 1926 2950 
Q 1536 2950 1328 2816 
Q 1120 2682 1120 2426 
Q 1120 2298 1168 2211 
Q 1216 2125 1299 2073 
Q 1382 2022 1488 1993 
Q 1594 1965 1702 1946 
L 2221 1869 
Q 2400 1843 2598 1798 
Q 2797 1754 2963 1654 
Q 3130 1555 3242 1388 
Q 3354 1222 3354 954 
Q 3354 461 2973 192 
Q 2592 -77 1958 -77 
z
" transform="scale(0.015625)"/>
       <path id="IBMPlexMono-Regular-61" d="M 2528 1990 
Q 2528 1523 2422 1091 
Q 2317 659 2134 288 
Q 1952 -83 1709 -384 
Q 1466 -685 1197 -883 
L 678 -883 
Q 954 -672 1203 -393 
Q 1453 -115 1641 214 
Q 1830 544 1939 925 
Q 2048 1306 2048 1715 
L 2048 2266 
Q 2048 2675 1939 3056 
Q 1830 3437 1641 3766 
Q 1453 4096 1203 4374 
Q 954 4653 678 4864 
L 1197 4864 
Q 1466 4659 1709 4361 
Q 1952 4064 2134 3693 
Q 2317 3322 2422 2890 
Q 2528 2458 2528 1990 
z
" transform="scale(0.015625)"/>
      </defs>
      <use xlink:href="#IBMPlexMono-Regular-31"/>
      <use xlink:href="#IBMPlexMono-Regular-c" transform="translate(60 0)"/>
      <use xlink:href="#IBMPlexMono-Regular-10" transform="translate(120 0)"/>
      <use xlink:href="#IBMPlexMono-Regular-6" transform="translate(180 0)"/>
      <use xlink:href="#IBMPlexMono-Regular-405" transform="translate(240 0)"/>
      <use xlink:href="#IBMPlexMono-Regular-60" transform="translate(300 0)"/>
      <use xlink:href="#IBMPlexMono-Regular-11" transform="translate(360 0)"/>
      <use xlink:href="#IBMPlexMono-Regular-16" transform="translate(420 0)"/>
      <use xlink:href="#IBMPlexMono-Regular-61" transform="translate(480 0)"/>
     </g>
    </g>
   </g>
   <g id="matplotlib.axis_2">
    <g id="ytick_1">
     <g id="line2d_19">
      <path d="M 49.2 232.357377 
L 418.32 232.357377 
" clip-path="url(#pa6f9bc20bf)" style="fill: none; stroke-dasharray: 2.96,1.28; stroke-dashoffset: 0; stroke: #808080; stroke-opacity: 0.3; stroke-width: 0.8"/>
     </g>
     <g id="line2d_20">
      <defs>
       <path id="mdce090ac65" d="M 0 0 
L -3.5 0 
" style="stroke: #f2f4f6; stroke-width: 0.8"/>
      </defs>
      <g>
       <use xlink:href="#mdce090ac65" x="49.2" y="232.357377" style="fill: #f2f4f6; stroke: #f2f4f6; stroke-width: 0.8"/>
      </g>
     </g>
     <g id="text_11">
      <!-- 0.0 -->
      <g style="fill: #f2f4f6" transform="translate(24.2 237.482377) scale(0.1 -0.1)">
       <defs>
        <path id="IBMPlexMono-Regular-4b" d="M 1920 -58 
Q 1658 -58 1552 51 
Q 1446 160 1446 326 
L 1446 442 
Q 1446 608 1552 717 
Q 1658 826 1920 826 
Q 2182 826 2288 717 
Q 2394 608 2394 442 
L 2394 326 
Q 2394 160 2288 51 
Q 2182 -58 1920 -58 
z
" transform="scale(0.015625)"/>
       </defs>
       <use xlink:href="#IBMPlexMono-Regular-38"/>
       <use xlink:href="#IBMPlexMono-Regular-4b" transform="translate(60 0)"/>
       <use xlink:href="#IBMPlexMono-Regular-38" transform="translate(120 0)"/>
      </g>
     </g>
    </g>
    <g id="ytick_2">
     <g id="line2d_21">
      <path d="M 49.2 192.349901 
L 418.32 192.349901 
" clip-path="url(#pa6f9bc20bf)" style="fill: none; stroke-dasharray: 2.96,1.28; stroke-dashoffset: 0; stroke: #808080; stroke-opacity: 0.3; stroke-width: 0.8"/>
     </g>
     <g id="line2d_22">
      <g>
       <use xlink:href="#mdce090ac65" x="49.2" y="192.349901" style="fill: #f2f4f6; stroke: #f2f4f6; stroke-width: 0.8"/>
      </g>
     </g>
     <g id="text_12">
      <!-- 0.2 -->
      <g style="fill: #f2f4f6" transform="translate(24.2 197.474901) scale(0.1 -0.1)">
       <use xlink:href="#IBMPlexMono-Regular-38"/>
       <use xlink:href="#IBMPlexMono-Regular-4b" transform="translate(60 0)"/>
       <use xlink:href="#IBMPlexMono-Regular-3c" transform="translate(120 0)"/>
      </g>
     </g>
    </g>
    <g id="ytick_3">
     <g id="line2d_23">
      <path d="M 49.2 152.342424 
L 418.32 152.342424 
" clip-path="url(#pa6f9bc20bf)" style="fill: none; stroke-dasharray: 2.96,1.28; stroke-dashoffset: 0; stroke: #808080; stroke-opacity: 0.3; stroke-width: 0.8"/>
     </g>
     <g id="line2d_24">
      <g>
       <use xlink:href="#mdce090ac65" x="49.2" y="152.342424" style="fill: #f2f4f6; stroke: #f2f4f6; stroke-width: 0.8"/>
      </g>
     </g>
     <g id="text_13">
      <!-- 0.4 -->
      <g style="fill: #f2f4f6" transform="translate(24.2 157.467424) scale(0.1 -0.1)">
       <use xlink:href="#IBMPlexMono-Regular-38"/>
       <use xlink:href="#IBMPlexMono-Regular-4b" transform="translate(60 0)"/>
       <use xlink:href="#IBMPlexMono-Regular-3e" transform="translate(120 0)"/>
      </g>
     </g>
    </g>
    <g id="ytick_4">
     <g id="line2d_25">
      <path d="M 49.2 112.334947 
L 418.32 112.334947 
" clip-path="url(#pa6f9bc20bf)" style="fill: none; stroke-dasharray: 2.96,1.28; stroke-dashoffset: 0; stroke: #808080; stroke-opacity: 0.3; stroke-width: 0.8"/>
     </g>
     <g id="line2d_26">
      <g>
       <use xlink:href="#mdce090ac65" x="49.2" y="112.334947" style="fill: #f2f4f6; stroke: #f2f4f6; stroke-width: 0.8"/>
      </g>
     </g>
     <g id="text_14">
      <!-- 0.6 -->
      <g style="fill: #f2f4f6" transform="translate(24.2 117.459947) scale(0.1 -0.1)">
       <defs>
        <path id="IBMPlexMono-Regular-40" d="M 1926 -77 
Q 1574 -77 1292 41 
Q 1011 160 816 381 
Q 621 602 515 922 
Q 410 1242 410 1638 
Q 410 2138 560 2576 
Q 710 3014 944 3376 
Q 1178 3738 1466 4016 
Q 1754 4294 2029 4467 
L 2720 4467 
Q 2355 4205 2070 3955 
Q 1786 3706 1568 3434 
Q 1350 3162 1203 2851 
Q 1056 2541 960 2150 
L 992 2138 
Q 1152 2413 1414 2595 
Q 1677 2778 2093 2778 
Q 2387 2778 2630 2682 
Q 2874 2586 3053 2406 
Q 3232 2227 3331 1971 
Q 3430 1715 3430 1402 
Q 3430 1075 3321 803 
Q 3213 531 3017 336 
Q 2822 141 2544 32 
Q 2266 -77 1926 -77 
z
M 1920 378 
Q 2381 378 2633 627 
Q 2886 877 2886 1331 
L 2886 1382 
Q 2886 1837 2633 2086 
Q 2381 2336 1920 2336 
Q 1459 2336 1206 2086 
Q 954 1837 954 1382 
L 954 1331 
Q 954 877 1206 627 
Q 1459 378 1920 378 
z
" transform="scale(0.015625)"/>
       </defs>
       <use xlink:href="#IBMPlexMono-Regular-38"/>
       <use xlink:href="#IBMPlexMono-Regular-4b" transform="translate(60 0)"/>
       <use xlink:href="#IBMPlexMono-Regular-40" transform="translate(120 0)"/>
      </g>
     </g>
    </g>
    <g id="ytick_5">
     <g id="line2d_27">
      <path d="M 49.2 72.327471 
L 418.32 72.327471 
" clip-path="url(#pa6f9bc20bf)" style="fill: none; stroke-dasharray: 2.96,1.28; stroke-dashoffset: 0; stroke: #808080; stroke-opacity: 0.3; stroke-width: 0.8"/>
     </g>
     <g id="line2d_28">
      <g>
       <use xlink:href="#mdce090ac65" x="49.2" y="72.327471" style="fill: #f2f4f6; stroke: #f2f4f6; stroke-width: 0.8"/>
      </g>
     </g>
     <g id="text_15">
      <!-- 0.8 -->
      <g style="fill: #f2f4f6" transform="translate(24.2 77.452471) scale(0.1 -0.1)">
       <defs>
        <path id="IBMPlexMono-Regular-42" d="M 1920 -77 
Q 1530 -77 1235 22 
Q 941 122 745 294 
Q 550 467 451 704 
Q 352 941 352 1216 
Q 352 1677 601 1945 
Q 851 2214 1261 2323 
L 1261 2374 
Q 902 2496 694 2768 
Q 486 3040 486 3424 
Q 486 3936 864 4240 
Q 1242 4544 1920 4544 
Q 2598 4544 2976 4240 
Q 3354 3936 3354 3424 
Q 3354 3040 3146 2768 
Q 2938 2496 2579 2374 
L 2579 2323 
Q 2989 2214 3238 1945 
Q 3488 1677 3488 1216 
Q 3488 941 3389 704 
Q 3290 467 3091 294 
Q 2893 122 2601 22 
Q 2310 -77 1920 -77 
z
M 1920 378 
Q 2394 378 2662 589 
Q 2931 800 2931 1184 
L 2931 1325 
Q 2931 1709 2665 1920 
Q 2400 2131 1920 2131 
Q 1440 2131 1174 1920 
Q 909 1709 909 1325 
L 909 1184 
Q 909 800 1177 589 
Q 1446 378 1920 378 
z
M 1920 2566 
Q 2355 2566 2582 2752 
Q 2810 2938 2810 3283 
L 2810 3373 
Q 2810 3718 2576 3904 
Q 2342 4090 1920 4090 
Q 1498 4090 1264 3904 
Q 1030 3718 1030 3373 
L 1030 3283 
Q 1030 2938 1257 2752 
Q 1485 2566 1920 2566 
z
" transform="scale(0.015625)"/>
       </defs>
       <use xlink:href="#IBMPlexMono-Regular-38"/>
       <use xlink:href="#IBMPlexMono-Regular-4b" transform="translate(60 0)"/>
       <use xlink:href="#IBMPlexMono-Regular-42" transform="translate(120 0)"/>
      </g>
     </g>
    </g>
    <g id="ytick_6">
     <g id="line2d_29">
      <path d="M 49.2 32.319994 
L 418.32 32.319994 
" clip-path="url(#pa6f9bc20bf)" style="fill: none; stroke-dasharray: 2.96,1.28; stroke-dashoffset: 0; stroke: #808080; stroke-opacity: 0.3; stroke-width: 0.8"/>
     </g>
     <g id="line2d_30">
      <g>
       <use xlink:href="#mdce090ac65" x="49.2" y="32.319994" style="fill: #f2f4f6; stroke: #f2f4f6; stroke-width: 0.8"/>
      </g>
     </g>
     <g id="text_16">
      <!-- 1.0 -->
      <g style="fill: #f2f4f6" transform="translate(24.2 37.444994) scale(0.1 -0.1)">
       <use xlink:href="#IBMPlexMono-Regular-3b"/>
       <use xlink:href="#IBMPlexMono-Regular-4b" transform="translate(60 0)"/>
       <use xlink:href="#IBMPlexMono-Regular-38" transform="translate(120 0)"/>
      </g>
     </g>
    </g>
    <g id="text_17">
     <!-- Population -->
     <g style="fill: #f2f4f6" transform="translate(17.45 159.338125) rotate(-90) scale(0.1 -0.1)">
      <defs>
       <path id="IBMPlexMono-Regular-2d" d="M 576 0 
L 576 4467 
L 2202 4467 
Q 2822 4467 3148 4128 
Q 3475 3789 3475 3181 
Q 3475 2573 3148 2233 
Q 2822 1894 2202 1894 
L 1114 1894 
L 1114 0 
L 576 0 
z
M 1114 2362 
L 2189 2362 
Q 2528 2362 2717 2531 
Q 2906 2701 2906 3014 
L 2906 3347 
Q 2906 3661 2717 3830 
Q 2528 4000 2189 4000 
L 1114 4000 
L 1114 2362 
z
" transform="scale(0.015625)"/>
       <path id="IBMPlexMono-Regular-12" d="M 1920 -77 
Q 1574 -77 1296 44 
Q 1018 166 822 393 
Q 627 621 524 937 
Q 422 1254 422 1651 
Q 422 2042 524 2362 
Q 627 2682 822 2909 
Q 1018 3136 1296 3257 
Q 1574 3379 1920 3379 
Q 2266 3379 2544 3257 
Q 2822 3136 3017 2909 
Q 3213 2682 3315 2362 
Q 3418 2042 3418 1651 
Q 3418 1254 3315 937 
Q 3213 621 3017 393 
Q 2822 166 2544 44 
Q 2266 -77 1920 -77 
z
M 1920 365 
Q 2349 365 2611 621 
Q 2874 877 2874 1414 
L 2874 1888 
Q 2874 2426 2611 2682 
Q 2349 2938 1920 2938 
Q 1491 2938 1228 2682 
Q 966 2426 966 1888 
L 966 1414 
Q 966 877 1228 621 
Q 1491 365 1920 365 
z
" transform="scale(0.015625)"/>
       <path id="IBMPlexMono-Regular-13" d="M 608 3302 
L 1120 3302 
L 1120 2765 
L 1146 2765 
Q 1466 3379 2163 3379 
Q 2771 3379 3113 2924 
Q 3456 2470 3456 1651 
Q 3456 832 3113 377 
Q 2771 -77 2163 -77 
Q 1466 -77 1146 538 
L 1120 538 
L 1120 -1280 
L 608 -1280 
L 608 3302 
z
M 1965 378 
Q 2413 378 2659 650 
Q 2906 922 2906 1370 
L 2906 1933 
Q 2906 2381 2659 2653 
Q 2413 2925 1965 2925 
Q 1792 2925 1638 2880 
Q 1485 2835 1369 2748 
Q 1254 2662 1187 2537 
Q 1120 2413 1120 2246 
L 1120 1056 
Q 1120 890 1187 765 
Q 1254 640 1369 553 
Q 1485 467 1638 422 
Q 1792 378 1965 378 
z
" transform="scale(0.015625)"/>
       <path id="IBMPlexMono-Regular-18" d="M 2701 538 
L 2675 538 
Q 2624 416 2547 304 
Q 2470 192 2358 109 
Q 2246 26 2092 -25 
Q 1939 -77 1734 -77 
Q 1216 -77 902 252 
Q 589 582 589 1184 
L 589 3302 
L 1101 3302 
L 1101 1274 
Q 1101 819 1299 598 
Q 1498 378 1882 378 
Q 2035 378 2182 416 
Q 2330 454 2445 531 
Q 2560 608 2630 726 
Q 2701 845 2701 1011 
L 2701 3302 
L 3213 3302 
L 3213 0 
L 2701 0 
L 2701 538 
z
" transform="scale(0.015625)"/>
       <path id="IBMPlexMono-Regular-f" d="M 512 435 
L 1664 435 
L 1664 4301 
L 512 4301 
L 512 4736 
L 2176 4736 
L 2176 435 
L 3328 435 
L 3328 0 
L 512 0 
L 512 435 
z
" transform="scale(0.015625)"/>
       <path id="IBMPlexMono-Regular-1" d="M 3168 0 
Q 2867 0 2739 153 
Q 2611 307 2579 538 
L 2547 538 
Q 2438 250 2198 86 
Q 1958 -77 1555 -77 
Q 1037 -77 729 192 
Q 422 461 422 928 
Q 422 1389 758 1638 
Q 1094 1888 1843 1888 
L 2547 1888 
L 2547 2214 
Q 2547 2579 2342 2761 
Q 2138 2944 1760 2944 
Q 1427 2944 1216 2813 
Q 1005 2682 877 2458 
L 531 2714 
Q 595 2842 704 2963 
Q 813 3085 973 3177 
Q 1133 3270 1337 3324 
Q 1542 3379 1792 3379 
Q 2374 3379 2716 3084 
Q 3059 2790 3059 2266 
L 3059 448 
L 3520 448 
L 3520 0 
L 3168 0 
z
M 1645 352 
Q 1843 352 2006 400 
Q 2170 448 2291 528 
Q 2413 608 2480 720 
Q 2547 832 2547 960 
L 2547 1504 
L 1843 1504 
Q 1382 1504 1171 1376 
Q 960 1248 960 1005 
L 960 870 
Q 960 614 1142 483 
Q 1325 352 1645 352 
z
" transform="scale(0.015625)"/>
       <path id="IBMPlexMono-Regular-17" d="M 2080 0 
Q 1702 0 1526 211 
Q 1350 422 1350 755 
L 1350 2867 
L 250 2867 
L 250 3302 
L 1069 3302 
Q 1235 3302 1302 3369 
Q 1370 3437 1370 3603 
L 1370 4467 
L 1862 4467 
L 1862 3302 
L 3366 3302 
L 3366 2867 
L 1862 2867 
L 1862 435 
L 3366 435 
L 3366 0 
L 2080 0 
z
" transform="scale(0.015625)"/>
      </defs>
      <use xlink:href="#IBMPlexMono-Regular-2d"/>
      <use xlink:href="#IBMPlexMono-Regular-12" transform="translate(60 0)"/>
      <use xlink:href="#IBMPlexMono-Regular-13" transform="translate(120 0)"/>
      <use xlink:href="#IBMPlexMono-Regular-18" transform="translate(180 0)"/>
      <use xlink:href="#IBMPlexMono-Regular-f" transform="translate(240 0)"/>
      <use xlink:href="#IBMPlexMono-Regular-1" transform="translate(300 0)"/>
      <use xlink:href="#IBMPlexMono-Regular-17" transform="translate(360 0)"/>
      <use xlink:href="#IBMPlexMono-Regular-c" transform="translate(420 0)"/>
      <use xlink:href="#IBMPlexMono-Regular-12" transform="translate(480 0)"/>
      <use xlink:href="#IBMPlexMono-Regular-11" transform="translate(540 0)"/>
     </g>
    </g>
   </g>
   <g id="line2d_31">
    <path d="M 65.978182 32.319994 
L 70.172727 32.320063 
L 74.367273 32.32034 
L 78.561818 32.320978 
L 82.756364 32.32221 
L 86.950909 32.324392 
L 91.145455 32.328049 
L 95.34 32.333945 
L 99.534545 32.343176 
L 103.729091 32.357296 
L 107.923636 32.378457 
L 112.118182 32.409621 
L 116.312727 32.454804 
L 120.507273 32.519352 
L 124.701818 32.610304 
L 128.896364 32.736814 
L 133.090909 32.910592 
L 137.285455 33.146382 
L 141.48 33.46254 
L 145.674545 33.88154 
L 149.869091 34.430392 
L 154.063636 35.141085 
L 158.258182 36.050862 
L 162.452727 37.20212 
L 166.647273 38.64212 
L 170.841818 40.422428 
L 175.036364 42.597683 
L 179.230909 45.223835 
L 183.425455 48.356144 
L 187.62 52.046514 
L 191.814545 56.340131 
L 196.009091 61.272177 
L 200.203636 66.864578 
L 204.398182 73.122468 
L 208.592727 80.031326 
L 212.787273 87.555418 
L 216.981818 95.636881 
L 221.176364 104.195911 
L 225.370909 113.133063 
L 229.565455 122.332848 
L 233.76 131.667917 
L 237.954545 141.004687 
L 242.149091 150.209823 
L 246.343636 159.155984 
L 250.538182 167.727135 
L 254.732727 175.823634 
L 258.927273 183.365652 
L 263.121818 190.294747 
L 267.316364 196.574632 
L 271.510909 202.190644 
L 275.705455 207.147488 
L 279.9 211.466439 
L 284.094545 215.182403 
L 288.289091 218.340334 
L 292.483636 220.991632 
L 296.678182 223.191233 
L 300.872727 224.994993 
L 305.067273 226.457299 
L 309.261818 227.629465 
L 313.456364 228.558729 
L 317.650909 229.287454 
L 321.845455 229.85277 
L 326.04 230.286683 
L 330.234545 230.616293 
L 334.429091 230.86409 
L 338.623636 231.048478 
L 342.818182 231.18433 
L 347.012727 231.283447 
L 351.207273 231.355059 
L 355.401818 231.406321 
L 359.596364 231.442694 
L 363.790909 231.468275 
L 367.985455 231.486119 
L 372.18 231.49848 
L 376.374545 231.506984 
L 380.569091 231.512796 
L 384.763636 231.516755 
L 388.958182 231.519444 
L 393.152727 231.521263 
L 397.347273 231.522495 
L 401.541818 231.523334 
" clip-path="url(#pa6f9bc20bf)" style="fill: none; stroke: #5f92cc; stroke-width: 2; stroke-linecap: square"/>
   </g>
   <g id="line2d_32">
    <path d="M 65.978182 232.357377 
L 70.172727 232.357309 
L 74.367273 232.357032 
L 78.561818 232.356394 
L 82.756364 232.355162 
L 86.950909 232.352979 
L 91.145455 232.349322 
L 95.34 232.343427 
L 99.534545 232.334196 
L 103.729091 232.320077 
L 107.923636 232.298916 
L 112.118182 232.267755 
L 116.312727 232.222577 
L 120.507273 232.158038 
L 124.701818 232.067106 
L 128.896364 231.940631 
L 133.090909 231.766918 
L 137.285455 231.531245 
L 141.48 231.215289 
L 145.674545 230.796636 
L 149.869091 230.248361 
L 154.063636 229.538604 
L 158.258182 228.630312 
L 162.452727 227.481352 
L 166.647273 226.044825 
L 170.841818 224.269642 
L 175.036364 222.101767 
L 179.230909 219.485982 
L 183.425455 216.367879 
L 187.62 212.696485 
L 191.814545 208.427566 
L 196.009091 203.526829 
L 200.203636 197.973058 
L 204.398182 191.761538 
L 208.592727 184.906764 
L 212.787273 177.443893 
L 216.981818 169.429592 
L 221.176364 160.941827 
L 225.370909 152.077602 
L 229.565455 142.949512 
L 233.76 133.681773 
L 237.954545 124.404799 
L 242.149091 115.248995 
L 246.343636 106.339302 
L 250.538182 97.790054 
L 254.732727 89.700003 
L 258.927273 82.149011 
L 263.121818 75.196427 
L 267.316364 68.880145 
L 271.510909 63.216988 
L 275.705455 58.204794 
L 279.9 53.824942 
L 284.094545 50.045088 
L 288.289091 46.82266 
L 292.483636 44.10832 
L 296.678182 41.84876 
L 300.872727 39.989346 
L 305.067273 38.476525 
L 309.261818 37.259417 
L 313.456364 36.290892 
L 317.650909 35.528466 
L 321.845455 34.934698 
L 326.04 34.477125 
L 330.234545 34.128134 
L 334.429091 33.864698 
L 338.623636 33.667863 
L 342.818182 33.522236 
L 347.012727 33.415546 
L 351.207273 33.338146 
L 355.401818 33.282511 
L 359.596364 33.242878 
L 363.790909 33.214898 
L 367.985455 33.195311 
L 372.18 33.181698 
L 376.374545 33.172307 
L 380.569091 33.165874 
L 384.763636 33.161484 
L 388.958182 33.158501 
L 393.152727 33.156484 
L 397.347273 33.155119 
L 401.541818 33.154192 
" clip-path="url(#pa6f9bc20bf)" style="fill: none; stroke: #ea5757; stroke-width: 2; stroke-linecap: square"/>
   </g>
   <g id="patch_3">
    <path d="M 49.2 236.358125 
L 49.2 22.318125 
" style="fill: none; stroke: #f2f4f6; stroke-width: 0.8; stroke-linejoin: miter; stroke-linecap: square"/>
   </g>
   <g id="patch_4">
    <path d="M 49.2 236.358125 
L 418.32 236.358125 
" style="fill: none; stroke: #f2f4f6; stroke-width: 0.8; stroke-linejoin: miter; stroke-linecap: square"/>
   </g>
   <g id="text_18">
    <!-- State populations -->
    <g style="fill: #f2f4f6" transform="translate(180.916875 16.318125) scale(0.12 -0.12)">
     <defs>
      <path id="DejaVuSans-36" d="M 3425 4513 
L 3425 3897 
Q 3066 4069 2747 4153 
Q 2428 4238 2131 4238 
Q 1616 4238 1336 4038 
Q 1056 3838 1056 3469 
Q 1056 3159 1242 3001 
Q 1428 2844 1947 2747 
L 2328 2669 
Q 3034 2534 3370 2195 
Q 3706 1856 3706 1288 
Q 3706 609 3251 259 
Q 2797 -91 1919 -91 
Q 1588 -91 1214 -16 
Q 841 59 441 206 
L 441 856 
Q 825 641 1194 531 
Q 1563 422 1919 422 
Q 2459 422 2753 634 
Q 3047 847 3047 1241 
Q 3047 1584 2836 1778 
Q 2625 1972 2144 2069 
L 1759 2144 
Q 1053 2284 737 2584 
Q 422 2884 422 3419 
Q 422 4038 858 4394 
Q 1294 4750 2059 4750 
Q 2388 4750 2728 4690 
Q 3069 4631 3425 4513 
z
" transform="scale(0.015625)"/>
      <path id="DejaVuSans-57" d="M 1172 4494 
L 1172 3500 
L 2356 3500 
L 2356 3053 
L 1172 3053 
L 1172 1153 
Q 1172 725 1289 603 
Q 1406 481 1766 481 
L 2356 481 
L 2356 0 
L 1766 0 
Q 1100 0 847 248 
Q 594 497 594 1153 
L 594 3053 
L 172 3053 
L 172 3500 
L 594 3500 
L 594 4494 
L 1172 4494 
z
" transform="scale(0.015625)"/>
      <path id="DejaVuSans-44" d="M 2194 1759 
Q 1497 1759 1228 1600 
Q 959 1441 959 1056 
Q 959 750 1161 570 
Q 1363 391 1709 391 
Q 2188 391 2477 730 
Q 2766 1069 2766 1631 
L 2766 1759 
L 2194 1759 
z
M 3341 1997 
L 3341 0 
L 2766 0 
L 2766 531 
Q 2569 213 2275 61 
Q 1981 -91 1556 -91 
Q 1019 -91 701 211 
Q 384 513 384 1019 
Q 384 1609 779 1909 
Q 1175 2209 1959 2209 
L 2766 2209 
L 2766 2266 
Q 2766 2663 2505 2880 
Q 2244 3097 1772 3097 
Q 1472 3097 1187 3025 
Q 903 2953 641 2809 
L 641 3341 
Q 956 3463 1253 3523 
Q 1550 3584 1831 3584 
Q 2591 3584 2966 3190 
Q 3341 2797 3341 1997 
z
" transform="scale(0.015625)"/>
      <path id="DejaVuSans-48" d="M 3597 1894 
L 3597 1613 
L 953 1613 
Q 991 1019 1311 708 
Q 1631 397 2203 397 
Q 2534 397 2845 478 
Q 3156 559 3463 722 
L 3463 178 
Q 3153 47 2828 -22 
Q 2503 -91 2169 -91 
Q 1331 -91 842 396 
Q 353 884 353 1716 
Q 353 2575 817 3079 
Q 1281 3584 2069 3584 
Q 2775 3584 3186 3129 
Q 3597 2675 3597 1894 
z
M 3022 2063 
Q 3016 2534 2758 2815 
Q 2500 3097 2075 3097 
Q 1594 3097 1305 2825 
Q 1016 2553 972 2059 
L 3022 2063 
z
" transform="scale(0.015625)"/>
      <path id="DejaVuSans-3" transform="scale(0.015625)"/>
      <path id="DejaVuSans-53" d="M 1159 525 
L 1159 -1331 
L 581 -1331 
L 581 3500 
L 1159 3500 
L 1159 2969 
Q 1341 3281 1617 3432 
Q 1894 3584 2278 3584 
Q 2916 3584 3314 3078 
Q 3713 2572 3713 1747 
Q 3713 922 3314 415 
Q 2916 -91 2278 -91 
Q 1894 -91 1617 61 
Q 1341 213 1159 525 
z
M 3116 1747 
Q 3116 2381 2855 2742 
Q 2594 3103 2138 3103 
Q 1681 3103 1420 2742 
Q 1159 2381 1159 1747 
Q 1159 1113 1420 752 
Q 1681 391 2138 391 
Q 2594 391 2855 752 
Q 3116 1113 3116 1747 
z
" transform="scale(0.015625)"/>
      <path id="DejaVuSans-52" d="M 1959 3097 
Q 1497 3097 1228 2736 
Q 959 2375 959 1747 
Q 959 1119 1226 758 
Q 1494 397 1959 397 
Q 2419 397 2687 759 
Q 2956 1122 2956 1747 
Q 2956 2369 2687 2733 
Q 2419 3097 1959 3097 
z
M 1959 3584 
Q 2709 3584 3137 3096 
Q 3566 2609 3566 1747 
Q 3566 888 3137 398 
Q 2709 -91 1959 -91 
Q 1206 -91 779 398 
Q 353 888 353 1747 
Q 353 2609 779 3096 
Q 1206 3584 1959 3584 
z
" transform="scale(0.015625)"/>
      <path id="DejaVuSans-58" d="M 544 1381 
L 544 3500 
L 1119 3500 
L 1119 1403 
Q 1119 906 1312 657 
Q 1506 409 1894 409 
Q 2359 409 2629 706 
Q 2900 1003 2900 1516 
L 2900 3500 
L 3475 3500 
L 3475 0 
L 2900 0 
L 2900 538 
Q 2691 219 2414 64 
Q 2138 -91 1772 -91 
Q 1169 -91 856 284 
Q 544 659 544 1381 
z
M 1991 3584 
L 1991 3584 
z
" transform="scale(0.015625)"/>
      <path id="DejaVuSans-4f" d="M 603 4863 
L 1178 4863 
L 1178 0 
L 603 0 
L 603 4863 
z
" transform="scale(0.015625)"/>
      <path id="DejaVuSans-4c" d="M 603 3500 
L 1178 3500 
L 1178 0 
L 603 0 
L 603 3500 
z
M 603 4863 
L 1178 4863 
L 1178 4134 
L 603 4134 
L 603 4863 
z
" transform="scale(0.015625)"/>
      <path id="DejaVuSans-51" d="M 3513 2113 
L 3513 0 
L 2938 0 
L 2938 2094 
Q 2938 2591 2744 2837 
Q 2550 3084 2163 3084 
Q 1697 3084 1428 2787 
Q 1159 2491 1159 1978 
L 1159 0 
L 581 0 
L 581 3500 
L 1159 3500 
L 1159 2956 
Q 1366 3272 1645 3428 
Q 1925 3584 2291 3584 
Q 2894 3584 3203 3211 
Q 3513 2838 3513 2113 
z
" transform="scale(0.015625)"/>
      <path id="DejaVuSans-56" d="M 2834 3397 
L 2834 2853 
Q 2591 2978 2328 3040 
Q 2066 3103 1784 3103 
Q 1356 3103 1142 2972 
Q 928 2841 928 2578 
Q 928 2378 1081 2264 
Q 1234 2150 1697 2047 
L 1894 2003 
Q 2506 1872 2764 1633 
Q 3022 1394 3022 966 
Q 3022 478 2636 193 
Q 2250 -91 1575 -91 
Q 1294 -91 989 -36 
Q 684 19 347 128 
L 347 722 
Q 666 556 975 473 
Q 1284 391 1588 391 
Q 1994 391 2212 530 
Q 2431 669 2431 922 
Q 2431 1156 2273 1281 
Q 2116 1406 1581 1522 
L 1381 1569 
Q 847 1681 609 1914 
Q 372 2147 372 2553 
Q 372 3047 722 3315 
Q 1072 3584 1716 3584 
Q 2034 3584 2315 3537 
Q 2597 3491 2834 3397 
z
" transform="scale(0.015625)"/>
     </defs>
     <use xlink:href="#DejaVuSans-36"/>
     <use xlink:href="#DejaVuSans-57" transform="translate(63.484375 0)"/>
     <use xlink:href="#DejaVuSans-44" transform="translate(102.6875 0)"/>
     <use xlink:href="#DejaVuSans-57" transform="translate(163.96875 0)"/>
     <use xlink:href="#DejaVuSans-48" transform="translate(203.171875 0)"/>
     <use xlink:href="#DejaVuSans-3" transform="translate(264.703125 0)"/>
     <use xlink:href="#DejaVuSans-53" transform="translate(296.484375 0)"/>
     <use xlink:href="#DejaVuSans-52" transform="translate(359.96875 0)"/>
     <use xlink:href="#DejaVuSans-53" transform="translate(421.15625 0)"/>
     <use xlink:href="#DejaVuSans-58" transform="translate(484.640625 0)"/>
     <use xlink:href="#DejaVuSans-4f" transform="translate(548.015625 0)"/>
     <use xlink:href="#DejaVuSans-44" transform="translate(575.796875 0)"/>
     <use xlink:href="#DejaVuSans-57" transform="translate(637.078125 0)"/>
     <use xlink:href="#DejaVuSans-4c" transform="translate(676.28125 0)"/>
     <use xlink:href="#DejaVuSans-52" transform="translate(704.0625 0)"/>
     <use xlink:href="#DejaVuSans-51" transform="translate(765.25 0)"/>
     <use xlink:href="#DejaVuSans-56" transform="translate(828.625 0)"/>
    </g>
   </g>
   <g id="legend_1">
    <g id="line2d_33">
     <path d="M 214.601 35.437875 
L 222.931 35.437875 
L 231.261 35.437875 
" style="fill: none; stroke: #5f92cc; stroke-width: 2.5; stroke-linecap: square"/>
    </g>
    <g id="text_19">
     <!-- |0&gt; -->
     <g style="fill: #f2f4f6" transform="translate(237.925 38.353375) scale(0.0833 -0.0833)">
      <defs>
       <path id="IBMPlexMono-Regular-6c" d="M 1696 -883 
L 1696 4864 
L 2144 4864 
L 2144 -883 
L 1696 -883 
z
" transform="scale(0.015625)"/>
       <path id="IBMPlexMono-Regular-87" d="M 544 634 
L 2816 1920 
L 2816 1971 
L 544 3258 
L 544 3802 
L 3296 2208 
L 3296 1696 
L 544 102 
L 544 634 
z
" transform="scale(0.015625)"/>
      </defs>
      <use xlink:href="#IBMPlexMono-Regular-6c"/>
      <use xlink:href="#IBMPlexMono-Regular-38" transform="translate(60 0)"/>
      <use xlink:href="#IBMPlexMono-Regular-87" transform="translate(120 0)"/>
     </g>
    </g>
    <g id="line2d_34">
     <path d="M 214.601 50.431875 
L 222.931 50.431875 
L 231.261 50.431875 
" style="fill: none; stroke: #ea5757; stroke-width: 2.5; stroke-linecap: square"/>
    </g>
    <g id="text_20">
     <!-- |1&gt; -->
     <g style="fill: #f2f4f6" transform="translate(237.925 53.347375) scale(0.0833 -0.0833)">
      <use xlink:href="#IBMPlexMono-Regular-6c"/>
      <use xlink:href="#IBMPlexMono-Regular-3b" transform="translate(60 0)"/>
      <use xlink:href="#IBMPlexMono-Regular-87" transform="translate(120 0)"/>
     </g>
    </g>
   </g>
  </g>
 </g>
 <defs>
  <clipPath id="pa6f9bc20bf">
   <rect x="49.2" y="22.318125" width="369.12" height="214.04"/>
  </clipPath>
 </defs>
</svg>
